{
    "asset" : {
        "generator" : "Khronos glTF Blender I/O v1.5.17",
        "version" : "2.0"
    },
    "extensionsUsed" : [
        "KHR_materials_unlit"
    ],
    "scene" : 0,
    "scenes" : [
        {
            "name" : "Scene",
            "nodes" : [
                0
            ]
        }
    ],
    "nodes" : [
        {
            "mesh" : 0,
            "name" : "carpet",
            "rotation" : [
                0,
                -0.7071067690849304,
                0,
                0.7071068286895752
            ],
            "scale" : [
                1,
                0.6735659241676331,
                1
            ]
        }
    ],
    "materials" : [
        {
            "doubleSided" : true,
            "extensions" : {
                "KHR_materials_unlit" : {}
            },
            "name" : "Chocofur_Scandinavian_Interior_Carpet",
            "pbrMetallicRoughness" : {
                "baseColorTexture" : {
                    "index" : 0
                },
                "metallicFactor" : 0,
                "roughnessFactor" : 0.9
            }
        }
    ],
    "meshes" : [
        {
            "name" : "Plane",
            "primitives" : [
                {
                    "attributes" : {
                        "POSITION" : 0,
                        "NORMAL" : 1,
                        "TEXCOORD_0" : 2
                    },
                    "indices" : 3,
                    "material" : 0
                }
            ]
        }
    ],
    "textures" : [
        {
            "sampler" : 0,
            "source" : 0
        }
    ],
    "images" : [
        {
            "bufferView" : 4,
            "mimeType" : "image/png",
            "name" : "denoisecarpet"
        }
    ],
    "accessors" : [
        {
            "bufferView" : 0,
            "componentType" : 5126,
            "count" : 5238,
            "max" : [
                0.5026218891143799,
                0.018637340515851974,
                1.5011544227600098
            ],
            "min" : [
                -0.5033571124076843,
                -0.008253326639533043,
                -1.4633550643920898
            ],
            "type" : "VEC3"
        },
        {
            "bufferView" : 1,
            "componentType" : 5126,
            "count" : 5238,
            "type" : "VEC3"
        },
        {
            "bufferView" : 2,
            "componentType" : 5126,
            "count" : 5238,
            "type" : "VEC2"
        },
        {
            "bufferView" : 3,
            "componentType" : 5123,
            "count" : 28776,
            "type" : "SCALAR"
        }
    ],
    "bufferViews" : [
        {
            "buffer" : 0,
            "byteLength" : 62856,
            "byteOffset" : 0
        },
        {
            "buffer" : 0,
            "byteLength" : 62856,
            "byteOffset" : 62856
        },
        {
            "buffer" : 0,
            "byteLength" : 41904,
            "byteOffset" : 125712
        },
        {
            "buffer" : 0,
            "byteLength" : 57552,
            "byteOffset" : 167616
        },
        {
            "buffer" : 0,
            "byteLength" : 561997,
            "byteOffset" : 225168
        }
    ],
    "samplers" : [
        {
            "magFilter" : 9729,
            "minFilter" : 9987
        }
    ],
    "buffers" : [
        {
            "byteLength" : 787168,
            "uri" : "data:application/octet-stream;base64,"
        }
    ]
}
