{
    "asset" : {
        "generator" : "Khronos glTF Blender I/O v1.5.17",
        "version" : "2.0"
    },
    "extensionsUsed" : [
        "KHR_materials_unlit"
    ],
    "scene" : 0,
    "scenes" : [
        {
            "name" : "Scene",
            "nodes" : [
                0
            ]
        }
    ],
    "nodes" : [
        {
            "mesh" : 0,
            "name" : "door1",
            "scale" : [
                0.4469274878501892,
                0.4469274878501892,
                0.4469274878501892
            ]
        }
    ],
    "materials" : [
        {
            "doubleSided" : true,
            "extensions" : {
                "KHR_materials_unlit" : {}
            },
            "name" : "Chocofur_Scandinavian_Interior_Window_Frames",
            "pbrMetallicRoughness" : {
                "baseColorTexture" : {
                    "index" : 0
                },
                "metallicFactor" : 0,
                "roughnessFactor" : 0.9
            }
        },
        {
            "doubleSided" : true,
            "name" : "Chocofur_Scandinavian_Interior_Window_Glass",
            "pbrMetallicRoughness" : {}
        }
    ],
    "meshes" : [
        {
            "extras" : {
                "targetNames" : [
                    "Key 1"
                ]
            },
            "name" : "Cube.007",
            "primitives" : [
                {
                    "attributes" : {
                        "POSITION" : 0,
                        "NORMAL" : 1
                    },
                    "indices" : 2,
                    "material" : 0,
                    "targets" : [
                        {
                            "POSITION" : 3,
                            "NORMAL" : 4
                        }
                    ]
                },
                {
                    "attributes" : {
                        "POSITION" : 5,
                        "NORMAL" : 6
                    },
                    "indices" : 7,
                    "material" : 1,
                    "targets" : [
                        {
                            "POSITION" : 8,
                            "NORMAL" : 9
                        }
                    ]
                }
            ],
            "weights" : [
                1
            ]
        }
    ],
    "textures" : [
        {
            "sampler" : 0,
            "source" : 0
        }
    ],
    "images" : [
        {
            "bufferView" : 3,
            "mimeType" : "image/png",
            "name" : "denoisedoor1"
        }
    ],
    "accessors" : [
        {
            "bufferView" : 0,
            "componentType" : 5126,
            "count" : 272,
            "max" : [
                -0.002917557954788208,
                2.632007598876953,
                0.6921641826629639
            ],
            "min" : [
                -0.16735880076885223,
                -2.1944398880004883,
                -3.7455174922943115
            ],
            "type" : "VEC3"
        },
        {
            "bufferView" : 1,
            "componentType" : 5126,
            "count" : 272,
            "type" : "VEC3"
        },
        {
            "bufferView" : 2,
            "componentType" : 5123,
            "count" : 576,
            "type" : "SCALAR"
        },
        {
            "bufferView" : 4,
            "componentType" : 5126,
            "count" : 272,
            "max" : [
                0,
                0,
                0
            ],
            "min" : [
                0,
                0,
                -2.7171902656555176
            ],
            "type" : "VEC3"
        },
        {
            "bufferView" : 5,
            "componentType" : 5126,
            "count" : 272,
            "type" : "VEC3"
        },
        {
            "bufferView" : 6,
            "componentType" : 5126,
            "count" : 442,
            "max" : [
                0.09440866112709045,
                2.46958589553833,
                0.620948076248169
            ],
            "min" : [
                -0.14793241024017334,
                -2.113060474395752,
                -3.6991710662841797
            ],
            "type" : "VEC3"
        },
        {
            "bufferView" : 7,
            "componentType" : 5126,
            "count" : 442,
            "type" : "VEC3"
        },
        {
            "bufferView" : 8,
            "componentType" : 5123,
            "count" : 2172,
            "type" : "SCALAR"
        },
        {
            "bufferView" : 9,
            "componentType" : 5126,
            "count" : 442,
            "max" : [
                0,
                0,
                0
            ],
            "min" : [
                0,
                0,
                -2.7260327339172363
            ],
            "type" : "VEC3"
        },
        {
            "bufferView" : 10,
            "componentType" : 5126,
            "count" : 442,
            "type" : "VEC3"
        }
    ],
    "bufferViews" : [
        {
            "buffer" : 0,
            "byteLength" : 3264,
            "byteOffset" : 0
        },
        {
            "buffer" : 0,
            "byteLength" : 3264,
            "byteOffset" : 3264
        },
        {
            "buffer" : 0,
            "byteLength" : 1152,
            "byteOffset" : 6528
        },
        {
            "buffer" : 0,
            "byteLength" : 360721,
            "byteOffset" : 7680
        },
        {
            "buffer" : 0,
            "byteLength" : 3264,
            "byteOffset" : 368404
        },
        {
            "buffer" : 0,
            "byteLength" : 3264,
            "byteOffset" : 371668
        },
        {
            "buffer" : 0,
            "byteLength" : 5304,
            "byteOffset" : 374932
        },
        {
            "buffer" : 0,
            "byteLength" : 5304,
            "byteOffset" : 380236
        },
        {
            "buffer" : 0,
            "byteLength" : 4344,
            "byteOffset" : 385540
        },
        {
            "buffer" : 0,
            "byteLength" : 5304,
            "byteOffset" : 389884
        },
        {
            "buffer" : 0,
            "byteLength" : 5304,
            "byteOffset" : 395188
        }
    ],
    "samplers" : [
        {
            "magFilter" : 9729,
            "minFilter" : 9987
        }
    ],
    "buffers" : [
        {
            "byteLength" : 400492,
            "uri" : "data:application/octet-stream;base64,"
        }
    ]
}
