{
    "asset" : {
        "generator" : "Khronos glTF Blender I/O v1.5.17",
        "version" : "2.0"
    },
    "extensionsUsed" : [
        "KHR_materials_unlit"
    ],
    "scene" : 0,
    "scenes" : [
        {
            "name" : "Scene",
            "nodes" : [
                0
            ]
        }
    ],
    "nodes" : [
        {
            "mesh" : 0,
            "name" : "lamp",
            "rotation" : [
                0,
                -0.30699196457862854,
                0,
                0.9517121315002441
            ],
            "scale" : [
                0.9398375749588013,
                0.9398375749588013,
                0.9398375749588013
            ]
        }
    ],
    "materials" : [
        {
            "doubleSided" : true,
            "extensions" : {
                "KHR_materials_unlit" : {}
            },
            "name" : "Material.011",
            "pbrMetallicRoughness" : {
                "baseColorTexture" : {
                    "index" : 0
                },
                "metallicFactor" : 0,
                "roughnessFactor" : 0.9
            }
        }
    ],
    "meshes" : [
        {
            "name" : "Chocofur_light_07.001",
            "primitives" : [
                {
                    "attributes" : {
                        "POSITION" : 0,
                        "NORMAL" : 1,
                        "TEXCOORD_0" : 2
                    },
                    "indices" : 3,
                    "material" : 0
                }
            ]
        }
    ],
    "textures" : [
        {
            "sampler" : 0,
            "source" : 0
        }
    ],
    "images" : [
        {
            "bufferView" : 4,
            "mimeType" : "image/png",
            "name" : "bakedlamp"
        }
    ],
    "accessors" : [
        {
            "bufferView" : 0,
            "componentType" : 5126,
            "count" : 4643,
            "max" : [
                0.1766803115606308,
                0.4675882160663605,
                1.3730345964431763
            ],
            "min" : [
                -0.17457452416419983,
                -1.009240746498108,
                -0.6323015689849854
            ],
            "type" : "VEC3"
        },
        {
            "bufferView" : 1,
            "componentType" : 5126,
            "count" : 4643,
            "type" : "VEC3"
        },
        {
            "bufferView" : 2,
            "componentType" : 5126,
            "count" : 4643,
            "type" : "VEC2"
        },
        {
            "bufferView" : 3,
            "componentType" : 5123,
            "count" : 18360,
            "type" : "SCALAR"
        }
    ],
    "bufferViews" : [
        {
            "buffer" : 0,
            "byteLength" : 55716,
            "byteOffset" : 0
        },
        {
            "buffer" : 0,
            "byteLength" : 55716,
            "byteOffset" : 55716
        },
        {
            "buffer" : 0,
            "byteLength" : 37144,
            "byteOffset" : 111432
        },
        {
            "buffer" : 0,
            "byteLength" : 36720,
            "byteOffset" : 148576
        },
        {
            "buffer" : 0,
            "byteLength" : 1738836,
            "byteOffset" : 185296
        }
    ],
    "samplers" : [
        {
            "magFilter" : 9729,
            "minFilter" : 9987
        }
    ],
    "buffers" : [
        {
            "byteLength" : 1924132,
            "uri" : "data:application/octet-stream;base64,"
        }
    ]
}
