{
    "asset" : {
        "generator" : "Khronos glTF Blender I/O v1.5.17",
        "version" : "2.0"
    },
    "extensionsUsed" : [
        "KHR_materials_unlit"
    ],
    "scene" : 0,
    "scenes" : [
        {
            "name" : "Scene",
            "nodes" : [
                0
            ]
        }
    ],
    "nodes" : [
        {
            "mesh" : 0,
            "name" : "ori1",
            "rotation" : [
                0,
                0.20687398314476013,
                0,
                0.9783676266670227
            ],
            "scale" : [
                1.218165397644043,
                1.218165636062622,
                1.218165397644043
            ]
        }
    ],
    "materials" : [
        {
            "doubleSided" : true,
            "extensions" : {
                "KHR_materials_unlit" : {}
            },
            "name" : "Material.010",
            "pbrMetallicRoughness" : {
                "baseColorTexture" : {
                    "index" : 0
                },
                "metallicFactor" : 0,
                "roughnessFactor" : 0.9
            }
        }
    ],
    "meshes" : [
        {
            "name" : "Chocofur_Toys_02_01",
            "primitives" : [
                {
                    "attributes" : {
                        "POSITION" : 0,
                        "NORMAL" : 1,
                        "TEXCOORD_0" : 2
                    },
                    "indices" : 3,
                    "material" : 0
                }
            ]
        }
    ],
    "textures" : [
        {
            "sampler" : 0,
            "source" : 0
        }
    ],
    "images" : [
        {
            "bufferView" : 4,
            "mimeType" : "image/png",
            "name" : "bakedori1"
        }
    ],
    "accessors" : [
        {
            "bufferView" : 0,
            "componentType" : 5126,
            "count" : 6412,
            "max" : [
                0.2733268439769745,
                0.04629747197031975,
                0.12988904118537903
            ],
            "min" : [
                -0.2899641692638397,
                -0.023038452491164207,
                -0.22888071835041046
            ],
            "type" : "VEC3"
        },
        {
            "bufferView" : 1,
            "componentType" : 5126,
            "count" : 6412,
            "type" : "VEC3"
        },
        {
            "bufferView" : 2,
            "componentType" : 5126,
            "count" : 6412,
            "type" : "VEC2"
        },
        {
            "bufferView" : 3,
            "componentType" : 5123,
            "count" : 26574,
            "type" : "SCALAR"
        }
    ],
    "bufferViews" : [
        {
            "buffer" : 0,
            "byteLength" : 76944,
            "byteOffset" : 0
        },
        {
            "buffer" : 0,
            "byteLength" : 76944,
            "byteOffset" : 76944
        },
        {
            "buffer" : 0,
            "byteLength" : 51296,
            "byteOffset" : 153888
        },
        {
            "buffer" : 0,
            "byteLength" : 53148,
            "byteOffset" : 205184
        },
        {
            "buffer" : 0,
            "byteLength" : 1729810,
            "byteOffset" : 258332
        }
    ],
    "samplers" : [
        {
            "magFilter" : 9729,
            "minFilter" : 9987
        }
    ],
    "buffers" : [
        {
            "byteLength" : 1988144,
            "uri" : "data:application/octet-stream;base64,"
        }
    ]
}
