{
    "asset" : {
        "generator" : "Khronos glTF Blender I/O v1.5.17",
        "version" : "2.0"
    },
    "extensionsUsed" : [
        "KHR_materials_unlit"
    ],
    "scene" : 0,
    "scenes" : [
        {
            "name" : "Scene",
            "nodes" : [
                0
            ]
        }
    ],
    "nodes" : [
        {
            "mesh" : 0,
            "name" : "phone",
            "rotation" : [
                0.37052807211875916,
                0.6022534966468811,
                -0.6022531986236572,
                0.3705276846885681
            ],
            "scale" : [
                0.887087345123291,
                0.887087345123291,
                0.8870872855186462
            ]
        }
    ],
    "materials" : [
        {
            "doubleSided" : true,
            "extensions" : {
                "KHR_materials_unlit" : {}
            },
            "name" : "Material.024",
            "pbrMetallicRoughness" : {
                "baseColorTexture" : {
                    "index" : 0
                },
                "metallicFactor" : 0,
                "roughnessFactor" : 0.9
            }
        }
    ],
    "meshes" : [
        {
            "name" : "Chocofur_Appliance_01",
            "primitives" : [
                {
                    "attributes" : {
                        "POSITION" : 0,
                        "NORMAL" : 1,
                        "TEXCOORD_0" : 2
                    },
                    "indices" : 3,
                    "material" : 0
                }
            ]
        }
    ],
    "textures" : [
        {
            "sampler" : 0,
            "source" : 0
        }
    ],
    "images" : [
        {
            "bufferView" : 4,
            "mimeType" : "image/png",
            "name" : "bakedphone"
        }
    ],
    "accessors" : [
        {
            "bufferView" : 0,
            "componentType" : 5126,
            "count" : 20350,
            "max" : [
                0.03000897727906704,
                0.061390046030282974,
                0.0034247087314724922
            ],
            "min" : [
                -0.02837887778878212,
                -0.060888487845659256,
                -0.004406724125146866
            ],
            "type" : "VEC3"
        },
        {
            "bufferView" : 1,
            "componentType" : 5126,
            "count" : 20350,
            "type" : "VEC3"
        },
        {
            "bufferView" : 2,
            "componentType" : 5126,
            "count" : 20350,
            "type" : "VEC2"
        },
        {
            "bufferView" : 3,
            "componentType" : 5123,
            "count" : 116601,
            "type" : "SCALAR"
        }
    ],
    "bufferViews" : [
        {
            "buffer" : 0,
            "byteLength" : 244200,
            "byteOffset" : 0
        },
        {
            "buffer" : 0,
            "byteLength" : 244200,
            "byteOffset" : 244200
        },
        {
            "buffer" : 0,
            "byteLength" : 162800,
            "byteOffset" : 488400
        },
        {
            "buffer" : 0,
            "byteLength" : 233202,
            "byteOffset" : 651200
        },
        {
            "buffer" : 0,
            "byteLength" : 1047689,
            "byteOffset" : 884404
        }
    ],
    "samplers" : [
        {
            "magFilter" : 9729,
            "minFilter" : 9987
        }
    ],
    "buffers" : [
        {
            "byteLength" : 1932096,
            "uri" : "data:application/octet-stream;base64,"
        }
    ]
}
