{
    "asset" : {
        "generator" : "Khronos glTF Blender I/O v1.5.17",
        "version" : "2.0"
    },
    "extensionsUsed" : [
        "KHR_materials_unlit"
    ],
    "scene" : 0,
    "scenes" : [
        {
            "name" : "Scene",
            "nodes" : [
                0
            ]
        }
    ],
    "nodes" : [
        {
            "mesh" : 0,
            "name" : "pot",
            "rotation" : [
                0,
                -0.028995351865887642,
                0,
                0.9995795488357544
            ],
            "scale" : [
                0.5438856482505798,
                0.5438856482505798,
                0.5438856482505798
            ]
        }
    ],
    "materials" : [
        {
            "doubleSided" : true,
            "extensions" : {
                "KHR_materials_unlit" : {}
            },
            "name" : "Material.019",
            "pbrMetallicRoughness" : {
                "baseColorTexture" : {
                    "index" : 0
                },
                "metallicFactor" : 0,
                "roughnessFactor" : 0.9
            }
        }
    ],
    "meshes" : [
        {
            "name" : "Chocofur_decor_41.002",
            "primitives" : [
                {
                    "attributes" : {
                        "POSITION" : 0,
                        "NORMAL" : 1,
                        "TEXCOORD_0" : 2
                    },
                    "indices" : 3,
                    "material" : 0
                }
            ]
        }
    ],
    "textures" : [
        {
            "sampler" : 0,
            "source" : 0
        }
    ],
    "images" : [
        {
            "bufferView" : 4,
            "mimeType" : "image/png",
            "name" : "bakedpot"
        }
    ],
    "accessors" : [
        {
            "bufferView" : 0,
            "componentType" : 5126,
            "count" : 7885,
            "max" : [
                0.4124443829059601,
                0.26071250438690186,
                0.11045458912849426
            ],
            "min" : [
                -0.4789915680885315,
                -0.16309469938278198,
                -0.1564134657382965
            ],
            "type" : "VEC3"
        },
        {
            "bufferView" : 1,
            "componentType" : 5126,
            "count" : 7885,
            "type" : "VEC3"
        },
        {
            "bufferView" : 2,
            "componentType" : 5126,
            "count" : 7885,
            "type" : "VEC2"
        },
        {
            "bufferView" : 3,
            "componentType" : 5123,
            "count" : 31944,
            "type" : "SCALAR"
        }
    ],
    "bufferViews" : [
        {
            "buffer" : 0,
            "byteLength" : 94620,
            "byteOffset" : 0
        },
        {
            "buffer" : 0,
            "byteLength" : 94620,
            "byteOffset" : 94620
        },
        {
            "buffer" : 0,
            "byteLength" : 63080,
            "byteOffset" : 189240
        },
        {
            "buffer" : 0,
            "byteLength" : 63888,
            "byteOffset" : 252320
        },
        {
            "buffer" : 0,
            "byteLength" : 1835794,
            "byteOffset" : 316208
        }
    ],
    "samplers" : [
        {
            "magFilter" : 9729,
            "minFilter" : 9987
        }
    ],
    "buffers" : [
        {
            "byteLength" : 2152004,
            "uri" : "data:application/octet-stream;base64,"
        }
    ]
}
