{
    "asset" : {
        "generator" : "Khronos glTF Blender I/O v1.5.17",
        "version" : "2.0"
    },
    "scene" : 0,
    "scenes" : [
        {
            "name" : "Scene",
            "nodes" : [
                0
            ]
        }
    ],
    "nodes" : [
        {
            "mesh" : 0,
            "name" : "windowshutter",
            "rotation" : [
                0,
                -0.7071067690849304,
                0,
                0.7071068286895752
            ],
            "scale" : [
                0.4469274878501892,
                0.4469274878501892,
                0.4469274878501892
            ]
        }
    ],
    "materials" : [
        {
            "doubleSided" : true,
            "name" : "Chocofur_Scandinavian_Interior_Window_Glass.001",
            "pbrMetallicRoughness" : {}
        }
    ],
    "meshes" : [
        {
            "name" : "Cube.015",
            "primitives" : [
                {
                    "attributes" : {
                        "POSITION" : 0,
                        "NORMAL" : 1,
                        "TEXCOORD_0" : 2
                    },
                    "indices" : 3,
                    "material" : 0
                }
            ]
        }
    ],
    "accessors" : [
        {
            "bufferView" : 0,
            "componentType" : 5126,
            "count" : 1272,
            "max" : [
                0.07233628630638123,
                1.4548463821411133,
                1.4372320175170898
            ],
            "min" : [
                -0.08460193872451782,
                -1.4148778915405273,
                -2.9725990295410156
            ],
            "type" : "VEC3"
        },
        {
            "bufferView" : 1,
            "componentType" : 5126,
            "count" : 1272,
            "type" : "VEC3"
        },
        {
            "bufferView" : 2,
            "componentType" : 5126,
            "count" : 1272,
            "type" : "VEC2"
        },
        {
            "bufferView" : 3,
            "componentType" : 5123,
            "count" : 4584,
            "type" : "SCALAR"
        }
    ],
    "bufferViews" : [
        {
            "buffer" : 0,
            "byteLength" : 15264,
            "byteOffset" : 0
        },
        {
            "buffer" : 0,
            "byteLength" : 15264,
            "byteOffset" : 15264
        },
        {
            "buffer" : 0,
            "byteLength" : 10176,
            "byteOffset" : 30528
        },
        {
            "buffer" : 0,
            "byteLength" : 9168,
            "byteOffset" : 40704
        }
    ],
    "buffers" : [
        {
            "byteLength" : 49872,
            "uri" : "data:application/octet-stream;base64,"
        }
    ]
}
